PathFileType	4	(X/Y/Z)	/Users/visionmauri/Downloads/Videos/OAW07-top_Sports2D/OAW07-top_Sports2D_px_person00.trc
DataRate	CameraRate	NumFrames	NumMarkers	Units	OrigDataRate	OrigDataStartFrame	OrigNumFrames
30.0	30.0	13	22	m	30.0	1890	3025
Frame#	Time	Hip			RHip			RKnee			RAnkle			RBigToe			RSmallToe			RHeel			LHip			LKnee			LAnkle			LBigToe			LSmallToe			LHeel			Neck			Head			Nose			RShoulder			RElbow			RWrist			LShoulder			LElbow			LWrist			
		X1	Y1	Z1	X2	Y2	Z2	X3	Y3	Z3	X4	Y4	Z4	X5	Y5	Z5	X6	Y6	Z6	X7	Y7	Z7	X8	Y8	Z8	X9	Y9	Z9	X10	Y10	Z10	X11	Y11	Z11	X12	Y12	Z12	X13	Y13	Z13	X14	Y14	Z14	X15	Y15	Z15	X16	Y16	Z16	X17	Y17	Z17	X18	Y18	Z18	X19	Y19	Z19	X20	Y20	Z20	X21	Y21	Z21	X22	Y22	Z22
1890	63.02083333333333	555.0052589089596	1183.4491833741076	0.0	626.4697624741841	1201.4657593549848	0.0	571.2220423511079	1385.5489658653464	0.0	577.5875271201711	1626.948235493096	0.0	554.2587666567736	1633.64008999157	0.0	597.4818443439142	1631.0849614195047	0.0	579.0307216675302	1670.2253296744777	0.0	485.7029893988131	1208.2970053210495	0.0	467.20512558402146	1529.2905673519992	0.0	490.32028729115933	1854.8213499156134	0.0	459.35174790119777	1872.51421297371	0.0	439.60448614394727	1898.5564666898001	0.0	515.7674781047101	1886.241091464485	0.0	546.5702194022373	738.5961400438716	0.0	535.8789226333928	580.7077776186372	0.0	496.87364923199044	676.4563317422554	0.0	682.9466483417921	817.4434772773675	0.0	738.0873104485705	1039.0299526300166	0.0	717.7773440370948	1192.107148481597	0.0	424.0903681652355	811.777333888369	0.0	373.22762197205924	1035.425165031811	0.0	352.9290803811186	1178.3820744981458	0.0
1891	63.05417768959435	557.8891135209543	1173.6571801133823	0.0	627.8042676709813	1193.7990038037979	0.0	573.10734956744	1382.5074903776133	0.0	577.955624871605	1629.043956955676	0.0	554.2308845705645	1642.3679956428084	0.0	599.4005074456136	1639.114241401529	0.0	579.8781802507833	1673.1614194914225	0.0	487.4211563981178	1197.6148503195184	0.0	462.41081485380226	1507.8463625460163	0.0	485.4658495861827	1825.3194643229538	0.0	459.24660278921726	1855.7758766752852	0.0	438.23255477795027	1881.019162727954	0.0	510.8470192791508	1866.0525091159645	0.0	552.3081943866113	733.3632154717276	0.0	543.7649716108424	576.8454163800378	0.0	502.5498534101432	672.5746142453511	0.0	687.5949123715536	811.040597191009	0.0	738.9853255312935	1033.9282119614268	0.0	717.3870046254209	1182.458146443644	0.0	429.49027412974294	804.8409918035002	0.0	379.7009429791928	1026.992965008949	0.0	360.782838834044	1170.056148544372	0.0
1892	63.08752204585537	560.7745296967013	1162.5049028192248	0.0	629.1975555460386	1185.406701328768	0.0	577.3244188044652	1384.8033895352082	0.0	578.1621278997513	1633.433981239782	0.0	553.3922180015495	1649.0863598447265	0.0	600.6022393007208	1647.1688703546922	0.0	579.1415080083149	1676.1084196307118	0.0	489.2462732158963	1185.5822361273008	0.0	455.9880647040668	1477.8410636560254	0.0	474.1986823181924	1790.598694051497	0.0	456.7629306887417	1831.0309641018105	0.0	432.50271988212256	1854.2151969921342	0.0	498.1062506204626	1838.4960800760446	0.0	557.4038453959329	727.8245186241741	0.0	550.0552255801122	574.2176959201826	0.0	506.7025135556208	669.7120047227918	0.0	691.8728380322959	805.0924796009696	0.0	739.5925688268059	1027.6363462796237	0.0	717.4396522410293	1171.5653479579623	0.0	435.32285477406424	798.0334162187067	0.0	386.82140160663704	1018.6113294247896	0.0	368.6541677572981	1162.5854625959385	0.0
1893	63.1208664021164	563.9829320797752	1150.5356487755696	0.0	631.4231682172011	1175.070870000213	0.0	582.3445875403719	1387.536869875496	0.0	578.0405603690374	1638.2316043842584	0.0	551.3479886483916	1652.7903807060848	0.0	599.4660649482404	1653.1004308998781	0.0	577.0397094955127	1677.8491931523624	0.0	491.70465796495154	1173.3124788911987	0.0	450.353651770274	1448.889515735802	0.0	460.8221543639956	1758.7303918338578	0.0	450.06264146938196	1802.0899502408076	0.0	422.2836888170617	1822.2335139026047	0.0	481.64370370887605	1808.295996928441	0.0	561.9596264565803	722.1006498353561	0.0	554.5672401976528	572.5628262961001	0.0	512.9621337874597	665.9056170695994	0.0	696.0085350176034	800.1024506611291	0.0	740.76742797556	1021.9889830870575	0.0	716.2789876627282	1161.3479294077074	0.0	441.45963368142685	791.6621964581786	0.0	393.46266164098205	1010.3495384921213	0.0	376.5599758559558	1155.9897835386207	0.0
1894	63.15421075837742	566.9528640012792	1138.9465832423864	0.0	633.3560783891676	1162.64226500028	0.0	586.1262944292513	1387.7660764215327	0.0	577.5646630965722	1642.12739951649	0.0	549.221236426018	1656.5911001522604	0.0	597.3847641842772	1657.7997166789248	0.0	575.011944666695	1678.5173170111093	0.0	494.615571113844	1161.2932398578205	0.0	447.4175728823842	1423.1116912211908	0.0	450.98450635546334	1726.5638570649326	0.0	441.80495413303504	1765.6316352337415	0.0	411.40086801285946	1783.789686930793	0.0	468.4021791406953	1774.7790673353447	0.0	566.2821866978026	717.6773041254656	0.0	557.4981731606554	570.4624108408964	0.0	521.5044130719566	661.7597889371342	0.0	699.0537603566415	795.9228689780967	0.0	742.0102209170437	1017.0048628930583	0.0	712.8927627910809	1152.0048336057673	0.0	447.0737643158809	786.8614563171942	0.0	398.77179323558283	1001.9380556179501	0.0	383.38686037191866	1149.198776387445	0.0
1895	63.18755511463844	568.6592271753524	1129.545157499802	0.0	633.5209378423914	1151.1135937878353	0.0	588.4428599038813	1385.0790623894234	0.0	576.8118727414875	1643.2090901834229	0.0	548.9448157906033	1662.983788194242	0.0	597.6166182439889	1664.356526744869	0.0	574.0793584411214	1679.6696996019268	0.0	497.016040584045	1151.0137225799604	0.0	447.6617171483678	1397.607858634975	0.0	447.2796308702753	1688.808279210845	0.0	438.47266733296163	1721.0134180123678	0.0	406.7681996304413	1737.5585176501063	0.0	462.3973243262966	1735.2950134952391	0.0	570.4325229098386	715.5428420445867	0.0	559.592106407987	568.0762689155218	0.0	528.0246394959516	659.1180844208789	0.0	700.4352430648973	792.5008242989353	0.0	742.2145978323916	1011.539463497641	0.0	707.248295213589	1142.3285793754887	0.0	451.13625820550584	783.9772312233632	0.0	403.0967592323356	993.2556178486208	0.0	388.31852648449853	1141.1652673486813	0.0
1896	63.22089947089946	569.2258425814674	1122.687061664468	0.0	632.4351348461934	1143.3460456241496	0.0	590.4141579754167	1379.1110028955231	0.0	576.2136470012064	1639.0782337281048	0.0	552.4187499916314	1669.1228386408052	0.0	601.8027399632924	1672.5958443211387	0.0	573.8951465711776	1679.8968264900655	0.0	498.7340757513675	1143.6934499588442	0.0	450.8240313197717	1371.0673779430467	0.0	448.070881449889	1648.7949358875394	0.0	442.83147321384274	1674.222018797675	0.0	410.76694882419997	1688.224951558282	0.0	461.7005171196539	1692.942959383315	0.0	574.242801516984	714.4405920612547	0.0	561.9990475727757	566.604976075604	0.0	530.6880136572536	657.9691538095566	0.0	701.2223183386332	790.0771880325964	0.0	741.6652176266458	1005.2640722580221	0.0	700.8806414503355	1130.5019710438057	0.0	453.8124418953144	781.8470557920822	0.0	407.40081610135223	984.6091541000952	0.0	392.0662822311791	1132.4782386607983	0.0
1897	63.25424382716049	569.5771970797432	1116.6594067183682	0.0	631.8158275929733	1138.6145737570828	0.0	592.6725685155179	1371.465278491591	0.0	576.2857409254501	1631.358598669816	0.0	558.9499035162056	1671.65842939163	0.0	607.7948037454748	1679.2576868676451	0.0	573.7709915151869	1676.9264126090661	0.0	500.5985256527175	1137.8674459256301	0.0	456.06683706028485	1346.5336801282544	0.0	450.76650999026657	1614.2806327334545	0.0	450.96218020768544	1631.6799862499452	0.0	419.3908019982658	1643.8291408320147	0.0	462.02106138542916	1656.1283600002075	0.0	577.6750623992002	712.5766966513921	0.0	565.0411316336084	566.0733997497622	0.0	531.4040034466907	657.3045778206814	0.0	702.4497681696855	788.313631578891	0.0	741.8480623911809	999.1890463083408	0.0	695.872547715122	1116.7654658065194	0.0	456.3521729323489	779.0059746070265	0.0	412.1145333826623	976.6193935956263	0.0	396.0532272145571	1124.654861614832	0.0
1898	63.28758818342151	569.9225412910208	1110.076209262001	0.0	632.4148805737169	1134.5288701607824	0.0	594.9035828540767	1366.9653362943916	0.0	576.7054988092831	1625.111233810154	0.0	564.1959489936113	1672.2097571408347	0.0	611.7992386789925	1682.4252057892063	0.0	573.545412957304	1672.337790406622	0.0	502.43063007672106	1131.1434361268095	0.0	461.39805557699754	1327.6988156800298	0.0	454.07314535693257	1587.7903906170698	0.0	457.4310974623077	1596.077739794913	0.0	427.6946094059276	1608.8841351706135	0.0	462.0143434879226	1628.6528355459025	0.0	580.3445178763496	709.852764769943	0.0	567.5962961719673	565.7844009638889	0.0	530.059001159564	656.9929084811505	0.0	703.981479753288	786.3654145840577	0.0	742.7422780308415	994.0533126271498	0.0	692.007139559034	1104.2155407472353	0.0	459.47074574668153	775.056821862228	0.0	416.5681212892649	970.1592578001491	0.0	400.739134305655	1118.307716529885	0.0
1899	63.32093253968253	570.0149789290141	1102.961730316467	0.0	633.3819947071535	1129.9455583895385	0.0	596.6524014407892	1366.9677488182795	0.0	576.915442680443	1622.712227100548	0.0	565.0244106180519	1673.766228101338	0.0	612.4720794281446	1682.9741913125024	0.0	573.3872380322747	1669.5045028756435	0.0	503.412587858037	1123.2300414292197	0.0	465.3960945298059	1313.7438397678795	0.0	457.73206700178423	1564.7311743931348	0.0	460.62775883834917	1565.4671850214806	0.0	433.4024480964658	1579.8396628788223	0.0	463.5483777674122	1604.5635744974502	0.0	581.5553434512202	707.2293828961051	0.0	568.6315018750688	565.5900576255215	0.0	525.6961786491205	657.0286947842208	0.0	705.121283261679	783.876089063474	0.0	742.7041995068308	988.903559337944	0.0	687.7180626440875	1093.9345862823138	0.0	462.8390854362397	771.0003269697527	0.0	420.22225841307676	965.750947320922	0.0	405.1491160814783	1112.833366996518	0.0
1900	63.354276895943556	569.9375453211992	1095.917068957188	0.0	633.3880581497485	1124.8540981677386	0.0	597.7483651478611	1366.3039843734434	0.0	576.872799204446	1622.6613698767449	0.0	563.2458706283345	1676.5435001489427	0.0	611.4672642507597	1683.86829741176	0.0	573.3420443000116	1669.0877045571222	0.0	504.07424890211627	1115.263838219046	0.0	469.19703833579314	1300.6014082067138	0.0	462.09951613354207	1538.2272128871145	0.0	462.99882324687115	1533.3207394774486	0.0	437.7258373145162	1547.9032231104663	0.0	467.6874680492758	1575.903050965432	0.0	581.7756731627195	705.2347674719118	0.0	568.4525668272032	565.7369742800857	0.0	520.930831211705	657.0755082450574	0.0	705.2017496833847	781.0314731963394	0.0	741.0735444552631	982.8519936549286	0.0	682.9010472870667	1083.1474038599827	0.0	466.02072401759335	768.217145337546	0.0	423.64195547002623	962.3562696204806	0.0	408.45067806253047	1106.953167834455	0.0
1901	63.38762125220458	569.5476285403766	1089.7643928010339	0.0	632.1208846335599	1119.5831632915736	0.0	598.2106958667015	1361.2183580473916	0.0	576.4314747356223	1623.1703040454452	0.0	561.6183905505616	1678.2579658111647	0.0	610.3884653468242	1686.1858705109846	0.0	572.9975800872671	1669.39038031332	0.0	505.14223553943356	1107.8985124392298	0.0	474.4123814910285	1286.1100308761688	0.0	467.7583866973158	1504.7944820245868	0.0	467.96068112181814	1494.4107794959218	0.0	443.3543555336161	1508.7704407361277	0.0	473.2052732486439	1541.4218331012064	0.0	582.2140611779707	703.5811248534187	0.0	568.0308840163149	566.4541980470896	0.0	518.8973837902319	657.1683115259183	0.0	703.8998612085695	778.1917160148938	0.0	738.7331546016607	976.6463633511908	0.0	677.897044193378	1070.3006118421629	0.0	469.04439590327866	766.6875176637599	0.0	427.094566316509	957.8183587165847	0.0	411.07040405209386	1099.9751397451591	0.0
1902	63.4209656084656	568.677823359831	1084.7639661055734	0.0	630.5540451730931	1113.9547558646009	0.0	598.2937313787562	1353.6584003931353	0.0	575.6000374297025	1623.589598048668	0.0	560.2390779489069	1677.2972061816308	0.0	609.1708651837522	1687.1023756693862	0.0	572.1284657232762	1669.546195144967	0.0	505.7218333947868	1100.748516367811	0.0	480.59962181137166	1270.9909532270804	0.0	475.6767965727899	1467.3256007625303	0.0	477.6282605325386	1451.977581822405	0.0	451.1595723054816	1468.4633663737286	0.0	480.1119338494166	1505.1544446876128	0.0	582.6400660461912	701.9815779320318	0.0	567.6912707615433	567.5967855934264	0.0	518.778026041242	657.8038745847632	0.0	701.520508416297	775.9010548063605	0.0	736.4514830877793	970.9747798466942	0.0	672.020671891275	1057.1266497343506	0.0	471.7844194376172	765.1237792058577	0.0	429.8847814387851	951.430030025383	0.0	413.7991723369813	1092.890657742259	0.0
